<mxfile host="Electron" agent="Mozilla/5.0 (Windows NT 10.0; Win64; x64) AppleWebKit/537.36 (KHTML, like Gecko) draw.io/24.7.17 Chrome/128.0.6613.36 Electron/32.0.1 Safari/537.36" version="24.7.17">
  <diagram name="PÃ¡gina-1" id="QjNfLH7FF_a0MWWUmwE9">
    <mxGraphModel dx="2294" dy="887" grid="1" gridSize="10" guides="1" tooltips="1" connect="1" arrows="1" fold="1" page="1" pageScale="1" pageWidth="827" pageHeight="1169" math="0" shadow="0">
      <root>
        <mxCell id="0" />
        <mxCell id="1" parent="0" />
        <mxCell id="yhOKyf5q3Hy9_Gc2_-Au-1" value="" style="ellipse;whiteSpace=wrap;html=1;aspect=fixed;" vertex="1" parent="1">
          <mxGeometry x="310" y="10" width="50" height="50" as="geometry" />
        </mxCell>
        <mxCell id="yhOKyf5q3Hy9_Gc2_-Au-2" value="" style="endArrow=none;html=1;rounded=0;entryX=0.5;entryY=1;entryDx=0;entryDy=0;" edge="1" parent="1" target="yhOKyf5q3Hy9_Gc2_-Au-1">
          <mxGeometry width="50" height="50" relative="1" as="geometry">
            <mxPoint x="334.76" y="140" as="sourcePoint" />
            <mxPoint x="334.76" y="90" as="targetPoint" />
          </mxGeometry>
        </mxCell>
        <mxCell id="yhOKyf5q3Hy9_Gc2_-Au-3" value="se selecciona &quot;Nuevo Votante&quot;&lt;div&gt;&amp;nbsp;[documentacion recibida]&lt;/div&gt;&lt;div&gt;// Habilitar opciones de identificacion&lt;/div&gt;" style="text;html=1;align=center;verticalAlign=middle;resizable=0;points=[];autosize=1;strokeColor=none;fillColor=none;" vertex="1" parent="1">
          <mxGeometry x="350" y="10" width="220" height="60" as="geometry" />
        </mxCell>
        <mxCell id="yhOKyf5q3Hy9_Gc2_-Au-6" value="" style="edgeStyle=orthogonalEdgeStyle;rounded=0;orthogonalLoop=1;jettySize=auto;html=1;" edge="1" parent="1" source="yhOKyf5q3Hy9_Gc2_-Au-4" target="yhOKyf5q3Hy9_Gc2_-Au-5">
          <mxGeometry relative="1" as="geometry" />
        </mxCell>
        <mxCell id="yhOKyf5q3Hy9_Gc2_-Au-19" value="" style="edgeStyle=orthogonalEdgeStyle;rounded=0;orthogonalLoop=1;jettySize=auto;html=1;" edge="1" parent="1" source="yhOKyf5q3Hy9_Gc2_-Au-4" target="yhOKyf5q3Hy9_Gc2_-Au-18">
          <mxGeometry relative="1" as="geometry" />
        </mxCell>
        <mxCell id="yhOKyf5q3Hy9_Gc2_-Au-4" value="Esperando Seleccion&lt;div&gt;de ID&lt;/div&gt;" style="rounded=1;whiteSpace=wrap;html=1;" vertex="1" parent="1">
          <mxGeometry x="275" y="140" width="120" height="60" as="geometry" />
        </mxCell>
        <mxCell id="yhOKyf5q3Hy9_Gc2_-Au-9" value="" style="rounded=0;orthogonalLoop=1;jettySize=auto;html=1;" edge="1" parent="1" source="yhOKyf5q3Hy9_Gc2_-Au-5" target="yhOKyf5q3Hy9_Gc2_-Au-8">
          <mxGeometry relative="1" as="geometry" />
        </mxCell>
        <mxCell id="yhOKyf5q3Hy9_Gc2_-Au-5" value="Validando Huella" style="whiteSpace=wrap;html=1;rounded=1;" vertex="1" parent="1">
          <mxGeometry x="580" y="140" width="120" height="60" as="geometry" />
        </mxCell>
        <mxCell id="yhOKyf5q3Hy9_Gc2_-Au-7" value="Se selecciona &quot;ID por Huella&quot;&amp;nbsp;&lt;div&gt;// Habilitar Scanner Dactilar&lt;/div&gt;" style="text;html=1;align=center;verticalAlign=middle;resizable=0;points=[];autosize=1;strokeColor=none;fillColor=none;" vertex="1" parent="1">
          <mxGeometry x="390" y="120" width="180" height="40" as="geometry" />
        </mxCell>
        <mxCell id="yhOKyf5q3Hy9_Gc2_-Au-29" style="edgeStyle=orthogonalEdgeStyle;rounded=0;orthogonalLoop=1;jettySize=auto;html=1;curved=1;entryX=1;entryY=0;entryDx=0;entryDy=0;" edge="1" parent="1" target="yhOKyf5q3Hy9_Gc2_-Au-8">
          <mxGeometry relative="1" as="geometry">
            <mxPoint x="710" y="410" as="targetPoint" />
            <mxPoint x="700" y="430" as="sourcePoint" />
            <Array as="points">
              <mxPoint x="730" y="430" />
              <mxPoint x="730" y="410" />
            </Array>
          </mxGeometry>
        </mxCell>
        <mxCell id="yhOKyf5q3Hy9_Gc2_-Au-32" style="rounded=0;orthogonalLoop=1;jettySize=auto;html=1;" edge="1" parent="1" source="yhOKyf5q3Hy9_Gc2_-Au-8" target="yhOKyf5q3Hy9_Gc2_-Au-31">
          <mxGeometry relative="1" as="geometry" />
        </mxCell>
        <mxCell id="yhOKyf5q3Hy9_Gc2_-Au-34" style="rounded=0;orthogonalLoop=1;jettySize=auto;html=1;entryX=0.5;entryY=0;entryDx=0;entryDy=0;" edge="1" parent="1" source="yhOKyf5q3Hy9_Gc2_-Au-8" target="yhOKyf5q3Hy9_Gc2_-Au-33">
          <mxGeometry relative="1" as="geometry" />
        </mxCell>
        <mxCell id="yhOKyf5q3Hy9_Gc2_-Au-8" value="Esperando&lt;div&gt;Seleccion&lt;/div&gt;&lt;div&gt;de TIPO de Voto&lt;/div&gt;" style="whiteSpace=wrap;html=1;rounded=1;" vertex="1" parent="1">
          <mxGeometry x="580" y="410" width="120" height="60" as="geometry" />
        </mxCell>
        <mxCell id="yhOKyf5q3Hy9_Gc2_-Au-10" value="" style="ellipse;shape=doubleEllipse;whiteSpace=wrap;html=1;aspect=fixed;" vertex="1" parent="1">
          <mxGeometry x="910" y="145" width="50" height="50" as="geometry" />
        </mxCell>
        <mxCell id="yhOKyf5q3Hy9_Gc2_-Au-11" value="" style="endArrow=none;html=1;rounded=0;exitX=1;exitY=0.5;exitDx=0;exitDy=0;entryX=0;entryY=0.5;entryDx=0;entryDy=0;" edge="1" parent="1" source="yhOKyf5q3Hy9_Gc2_-Au-5" target="yhOKyf5q3Hy9_Gc2_-Au-10">
          <mxGeometry width="50" height="50" relative="1" as="geometry">
            <mxPoint x="694.86" y="250" as="sourcePoint" />
            <mxPoint x="694.86" y="200" as="targetPoint" />
          </mxGeometry>
        </mxCell>
        <mxCell id="yhOKyf5q3Hy9_Gc2_-Au-12" value="&lt;font style=&quot;font-size: 11px;&quot;&gt;Se scanea la huella&amp;nbsp;&lt;/font&gt;&lt;div style=&quot;font-size: 11px;&quot;&gt;&lt;font style=&quot;font-size: 11px;&quot;&gt;[Huella Inexistente]&lt;/font&gt;&lt;/div&gt;&lt;div style=&quot;font-size: 11px;&quot;&gt;&lt;font style=&quot;font-size: 11px;&quot;&gt;//Desactivar Scanner, Cancelar Operacion&lt;/font&gt;&lt;/div&gt;" style="text;html=1;align=left;verticalAlign=middle;resizable=0;points=[];autosize=1;strokeColor=none;fillColor=none;" vertex="1" parent="1">
          <mxGeometry x="700" y="115" width="230" height="50" as="geometry" />
        </mxCell>
        <mxCell id="yhOKyf5q3Hy9_Gc2_-Au-13" value="" style="ellipse;shape=doubleEllipse;whiteSpace=wrap;html=1;aspect=fixed;" vertex="1" parent="1">
          <mxGeometry x="615" y="10" width="50" height="50" as="geometry" />
        </mxCell>
        <mxCell id="yhOKyf5q3Hy9_Gc2_-Au-14" value="" style="endArrow=none;html=1;rounded=0;entryX=0.5;entryY=1;entryDx=0;entryDy=0;" edge="1" parent="1" target="yhOKyf5q3Hy9_Gc2_-Au-13">
          <mxGeometry width="50" height="50" relative="1" as="geometry">
            <mxPoint x="639.86" y="140" as="sourcePoint" />
            <mxPoint x="639.86" y="90" as="targetPoint" />
          </mxGeometry>
        </mxCell>
        <mxCell id="yhOKyf5q3Hy9_Gc2_-Au-15" value="&lt;h4 style=&quot;font-size: 10px;&quot;&gt;&lt;span style=&quot;font-weight: normal;&quot;&gt;&lt;font style=&quot;font-size: 10px;&quot;&gt;Se scanea la huella&amp;nbsp;&lt;br&gt;&lt;/font&gt;&lt;font style=&quot;font-size: 10px;&quot;&gt;[Huella Existente, Voto Realizado]&lt;br&gt;&lt;/font&gt;&lt;font style=&quot;font-size: 10px;&quot;&gt;//Desactivar Scanner, Mostrar Mensaje, Cancelar Operacion&lt;/font&gt;&lt;/span&gt;&lt;/h4&gt;" style="text;html=1;align=left;verticalAlign=middle;resizable=0;points=[];autosize=1;strokeColor=none;fillColor=none;" vertex="1" parent="1">
          <mxGeometry x="650" y="40" width="290" height="80" as="geometry" />
        </mxCell>
        <mxCell id="yhOKyf5q3Hy9_Gc2_-Au-16" value="&lt;h4 style=&quot;font-size: 10px;&quot;&gt;&lt;span style=&quot;font-weight: normal;&quot;&gt;&lt;font style=&quot;font-size: 10px;&quot;&gt;Se scanea la huella&amp;nbsp;&lt;br&gt;&lt;/font&gt;&lt;font style=&quot;font-size: 10px;&quot;&gt;[Huella Existente, Voto No Realizado]&lt;br&gt;&lt;div style=&quot;&quot;&gt;&lt;span style=&quot;background-color: initial;&quot;&gt;//Habilitar Urna Electronica, Desactivar Scanner&lt;/span&gt;&lt;/div&gt;&lt;/font&gt;&lt;/span&gt;&lt;/h4&gt;" style="text;html=1;align=left;verticalAlign=middle;resizable=0;points=[];autosize=1;strokeColor=none;fillColor=none;" vertex="1" parent="1">
          <mxGeometry x="640" y="190" width="240" height="80" as="geometry" />
        </mxCell>
        <mxCell id="yhOKyf5q3Hy9_Gc2_-Au-25" value="" style="edgeStyle=orthogonalEdgeStyle;rounded=0;orthogonalLoop=1;jettySize=auto;html=1;" edge="1" parent="1" source="yhOKyf5q3Hy9_Gc2_-Au-18" target="yhOKyf5q3Hy9_Gc2_-Au-24">
          <mxGeometry relative="1" as="geometry" />
        </mxCell>
        <mxCell id="yhOKyf5q3Hy9_Gc2_-Au-27" style="rounded=0;orthogonalLoop=1;jettySize=auto;html=1;entryX=0;entryY=0.5;entryDx=0;entryDy=0;" edge="1" parent="1" source="yhOKyf5q3Hy9_Gc2_-Au-18" target="yhOKyf5q3Hy9_Gc2_-Au-8">
          <mxGeometry relative="1" as="geometry" />
        </mxCell>
        <mxCell id="yhOKyf5q3Hy9_Gc2_-Au-18" value="Validando Legajo" style="whiteSpace=wrap;html=1;rounded=1;" vertex="1" parent="1">
          <mxGeometry x="275" y="300" width="120" height="60" as="geometry" />
        </mxCell>
        <mxCell id="yhOKyf5q3Hy9_Gc2_-Au-20" value="Se selecciona &quot;ID por Legajo&quot;&amp;nbsp;&lt;div&gt;// Habilitar Teclado&lt;/div&gt;" style="text;html=1;align=center;verticalAlign=middle;resizable=0;points=[];autosize=1;strokeColor=none;fillColor=none;" vertex="1" parent="1">
          <mxGeometry x="150" y="220" width="190" height="40" as="geometry" />
        </mxCell>
        <mxCell id="yhOKyf5q3Hy9_Gc2_-Au-21" value="" style="ellipse;shape=doubleEllipse;whiteSpace=wrap;html=1;aspect=fixed;" vertex="1" parent="1">
          <mxGeometry x="40" y="305" width="50" height="50" as="geometry" />
        </mxCell>
        <mxCell id="yhOKyf5q3Hy9_Gc2_-Au-22" value="" style="endArrow=none;html=1;rounded=0;exitX=0;exitY=0.5;exitDx=0;exitDy=0;entryX=1;entryY=0.5;entryDx=0;entryDy=0;" edge="1" parent="1" source="yhOKyf5q3Hy9_Gc2_-Au-18" target="yhOKyf5q3Hy9_Gc2_-Au-21">
          <mxGeometry width="50" height="50" relative="1" as="geometry">
            <mxPoint x="64.86000000000001" y="410" as="sourcePoint" />
            <mxPoint x="64.86000000000001" y="360" as="targetPoint" />
          </mxGeometry>
        </mxCell>
        <mxCell id="yhOKyf5q3Hy9_Gc2_-Au-23" value="&lt;font style=&quot;font-size: 11px;&quot;&gt;Se ingresa Legajo&lt;/font&gt;&lt;div style=&quot;font-size: 11px;&quot;&gt;&lt;font style=&quot;font-size: 11px;&quot;&gt;[Legajo Inexistente]&lt;/font&gt;&lt;/div&gt;&lt;div style=&quot;font-size: 11px;&quot;&gt;&lt;font style=&quot;font-size: 11px;&quot;&gt;//Inhabilitar Teclado, Mostrar Mensaje, Cancelar Operacion&lt;/font&gt;&lt;/div&gt;" style="text;html=1;align=center;verticalAlign=middle;resizable=0;points=[];autosize=1;strokeColor=none;fillColor=none;" vertex="1" parent="1">
          <mxGeometry x="-5" y="335" width="310" height="50" as="geometry" />
        </mxCell>
        <mxCell id="yhOKyf5q3Hy9_Gc2_-Au-24" value="" style="ellipse;shape=doubleEllipse;whiteSpace=wrap;html=1;aspect=fixed;" vertex="1" parent="1">
          <mxGeometry x="310" y="490" width="50" height="50" as="geometry" />
        </mxCell>
        <mxCell id="yhOKyf5q3Hy9_Gc2_-Au-26" value="&lt;font style=&quot;font-size: 11px;&quot;&gt;Se ingresa Legajo&lt;/font&gt;&lt;div style=&quot;font-size: 11px;&quot;&gt;&lt;font style=&quot;font-size: 11px;&quot;&gt;[Legajo Existente, Voto Realizado]&lt;/font&gt;&lt;/div&gt;&lt;div style=&quot;font-size: 11px;&quot;&gt;&lt;font style=&quot;font-size: 11px;&quot;&gt;//Inhabilitar Teclado, Mostrar Mensaje, Cancelar Operacion&lt;/font&gt;&lt;/div&gt;" style="text;html=1;align=right;verticalAlign=middle;resizable=0;points=[];autosize=1;strokeColor=none;fillColor=none;" vertex="1" parent="1">
          <mxGeometry x="20" y="440" width="310" height="50" as="geometry" />
        </mxCell>
        <mxCell id="yhOKyf5q3Hy9_Gc2_-Au-28" value="&lt;h4 style=&quot;font-size: 10px;&quot;&gt;&lt;span style=&quot;font-weight: normal;&quot;&gt;&lt;font style=&quot;font-size: 10px;&quot;&gt;Se ingresa Legajo&amp;nbsp;&lt;br&gt;&lt;/font&gt;&lt;font style=&quot;font-size: 10px;&quot;&gt;[Legajo Existente, Voto No Realizado]&lt;br&gt;&lt;div style=&quot;&quot;&gt;&lt;span style=&quot;background-color: initial;&quot;&gt;//Habilitar Urna Electronica, Desactivar Teclado&lt;/span&gt;&lt;/div&gt;&lt;/font&gt;&lt;/span&gt;&lt;/h4&gt;" style="text;html=1;align=left;verticalAlign=middle;resizable=0;points=[];autosize=1;strokeColor=none;fillColor=none;" vertex="1" parent="1">
          <mxGeometry x="400" y="300" width="230" height="80" as="geometry" />
        </mxCell>
        <mxCell id="yhOKyf5q3Hy9_Gc2_-Au-30" value="&lt;h5 style=&quot;font-size: 7px;&quot;&gt;&lt;span style=&quot;font-weight: normal;&quot;&gt;Se pasan 30 segundos&lt;br&gt;[No se Selecciono Tipo de Voto]&lt;br&gt;// Mostrar Cartel de Aviso&lt;/span&gt;&lt;/h5&gt;" style="text;html=1;align=left;verticalAlign=middle;resizable=0;points=[];autosize=1;strokeColor=none;fillColor=none;" vertex="1" parent="1">
          <mxGeometry x="730" y="385" width="120" height="60" as="geometry" />
        </mxCell>
        <mxCell id="yhOKyf5q3Hy9_Gc2_-Au-37" style="edgeStyle=orthogonalEdgeStyle;rounded=0;orthogonalLoop=1;jettySize=auto;html=1;curved=1;entryX=0.997;entryY=0.17;entryDx=0;entryDy=0;entryPerimeter=0;" edge="1" parent="1" source="yhOKyf5q3Hy9_Gc2_-Au-31" target="yhOKyf5q3Hy9_Gc2_-Au-31">
          <mxGeometry relative="1" as="geometry">
            <mxPoint x="840" y="551" as="targetPoint" />
            <Array as="points">
              <mxPoint x="850" y="570" />
              <mxPoint x="850" y="550" />
            </Array>
          </mxGeometry>
        </mxCell>
        <mxCell id="yhOKyf5q3Hy9_Gc2_-Au-42" style="rounded=0;orthogonalLoop=1;jettySize=auto;html=1;entryX=1;entryY=0;entryDx=0;entryDy=0;" edge="1" parent="1" target="yhOKyf5q3Hy9_Gc2_-Au-40">
          <mxGeometry relative="1" as="geometry">
            <mxPoint x="690" y="670" as="targetPoint" />
            <mxPoint x="760" y="600" as="sourcePoint" />
          </mxGeometry>
        </mxCell>
        <mxCell id="yhOKyf5q3Hy9_Gc2_-Au-31" value="Eligiendo 2&lt;div&gt;Agrupaciones&lt;/div&gt;" style="rounded=1;whiteSpace=wrap;html=1;" vertex="1" parent="1">
          <mxGeometry x="710" y="540" width="120" height="60" as="geometry" />
        </mxCell>
        <mxCell id="yhOKyf5q3Hy9_Gc2_-Au-33" value="Eligiendo 1&lt;div&gt;Agrupacion&lt;/div&gt;" style="rounded=1;whiteSpace=wrap;html=1;" vertex="1" parent="1">
          <mxGeometry x="470" y="540" width="120" height="60" as="geometry" />
        </mxCell>
        <mxCell id="yhOKyf5q3Hy9_Gc2_-Au-35" value="&lt;h5 style=&quot;font-size: 7px;&quot;&gt;&lt;span style=&quot;font-weight: normal;&quot;&gt;Se selecciono &quot;Cortar Boleta&quot;&lt;br&gt;// Ocultar Opciones Actuales, Listar Partidos Disponibles&lt;/span&gt;&lt;/h5&gt;" style="text;html=1;align=left;verticalAlign=middle;resizable=0;points=[];autosize=1;strokeColor=none;fillColor=none;" vertex="1" parent="1">
          <mxGeometry x="700" y="460" width="200" height="50" as="geometry" />
        </mxCell>
        <mxCell id="yhOKyf5q3Hy9_Gc2_-Au-36" value="&lt;h5 style=&quot;font-size: 7px;&quot;&gt;&lt;span style=&quot;font-weight: normal;&quot;&gt;Se selecciono &quot;Boleta Completa&quot;&lt;br&gt;// Ocultar Opciones Actuales, Listar Partidos Disponibles&lt;/span&gt;&lt;/h5&gt;" style="text;html=1;align=right;verticalAlign=middle;resizable=0;points=[];autosize=1;strokeColor=none;fillColor=none;" vertex="1" parent="1">
          <mxGeometry x="380" y="460" width="200" height="50" as="geometry" />
        </mxCell>
        <mxCell id="yhOKyf5q3Hy9_Gc2_-Au-38" value="&lt;h5 style=&quot;font-size: 7px;&quot;&gt;&lt;span style=&quot;font-weight: normal;&quot;&gt;Se selecciona agrupacion&lt;br&gt;[Agrupaciones seleccionadas son 0]&lt;br&gt;//Guardar Seleccion, Incrementar Agr Seleccionadas&lt;/span&gt;&lt;/h5&gt;" style="text;html=1;align=left;verticalAlign=middle;resizable=0;points=[];autosize=1;strokeColor=none;fillColor=none;" vertex="1" parent="1">
          <mxGeometry x="850" y="524" width="190" height="60" as="geometry" />
        </mxCell>
        <mxCell id="yhOKyf5q3Hy9_Gc2_-Au-40" value="Confirmando&lt;div&gt;Voto&lt;/div&gt;" style="rounded=1;whiteSpace=wrap;html=1;" vertex="1" parent="1">
          <mxGeometry x="580" y="710" width="120" height="60" as="geometry" />
        </mxCell>
        <mxCell id="yhOKyf5q3Hy9_Gc2_-Au-41" style="rounded=0;orthogonalLoop=1;jettySize=auto;html=1;entryX=0;entryY=0;entryDx=0;entryDy=0;" edge="1" parent="1" source="yhOKyf5q3Hy9_Gc2_-Au-33" target="yhOKyf5q3Hy9_Gc2_-Au-40">
          <mxGeometry relative="1" as="geometry" />
        </mxCell>
        <mxCell id="yhOKyf5q3Hy9_Gc2_-Au-44" value="&lt;h5 style=&quot;font-size: 7px;&quot;&gt;&lt;span style=&quot;font-weight: normal;&quot;&gt;Se selecciona agrupacion&lt;br&gt;//Ocultar Listado, Mostrar Seleccion&lt;span style=&quot;background-color: initial;&quot;&gt;&amp;nbsp;en pantalla, habilitar botones&lt;/span&gt;&lt;/span&gt;&lt;/h5&gt;" style="text;html=1;align=right;verticalAlign=middle;resizable=0;points=[];autosize=1;strokeColor=none;fillColor=none;" vertex="1" parent="1">
          <mxGeometry x="320" y="620" width="230" height="50" as="geometry" />
        </mxCell>
        <mxCell id="yhOKyf5q3Hy9_Gc2_-Au-47" value="&lt;h5 style=&quot;font-size: 7px;&quot;&gt;&lt;span style=&quot;font-weight: normal;&quot;&gt;Se selecciona agrupacion&lt;br&gt;[Agrupaciones seleccionadas son 1]&lt;br&gt;//Guardar Seleccion, Ocultar Listado, Mostrar Selecciones en pantalla, habilitar botones&lt;/span&gt;&lt;/h5&gt;" style="text;html=1;align=left;verticalAlign=middle;resizable=0;points=[];autosize=1;strokeColor=none;fillColor=none;" vertex="1" parent="1">
          <mxGeometry x="750" y="610" width="300" height="60" as="geometry" />
        </mxCell>
        <mxCell id="yhOKyf5q3Hy9_Gc2_-Au-48" value="" style="ellipse;shape=doubleEllipse;whiteSpace=wrap;html=1;aspect=fixed;" vertex="1" parent="1">
          <mxGeometry x="530" y="870" width="50" height="50" as="geometry" />
        </mxCell>
        <mxCell id="yhOKyf5q3Hy9_Gc2_-Au-49" value="" style="endArrow=none;html=1;rounded=0;entryX=0.182;entryY=1.024;entryDx=0;entryDy=0;entryPerimeter=0;" edge="1" parent="1" source="yhOKyf5q3Hy9_Gc2_-Au-48" target="yhOKyf5q3Hy9_Gc2_-Au-40">
          <mxGeometry width="50" height="50" relative="1" as="geometry">
            <mxPoint x="589.64" y="820" as="sourcePoint" />
            <mxPoint x="589.64" y="770" as="targetPoint" />
          </mxGeometry>
        </mxCell>
        <mxCell id="yhOKyf5q3Hy9_Gc2_-Au-50" value="" style="ellipse;shape=doubleEllipse;whiteSpace=wrap;html=1;aspect=fixed;" vertex="1" parent="1">
          <mxGeometry x="700" y="870" width="50" height="50" as="geometry" />
        </mxCell>
        <mxCell id="yhOKyf5q3Hy9_Gc2_-Au-51" value="" style="endArrow=none;html=1;rounded=0;entryX=0.896;entryY=0.988;entryDx=0;entryDy=0;entryPerimeter=0;" edge="1" parent="1" source="yhOKyf5q3Hy9_Gc2_-Au-50" target="yhOKyf5q3Hy9_Gc2_-Au-40">
          <mxGeometry width="50" height="50" relative="1" as="geometry">
            <mxPoint x="694.64" y="820" as="sourcePoint" />
            <mxPoint x="694.64" y="770" as="targetPoint" />
          </mxGeometry>
        </mxCell>
        <mxCell id="yhOKyf5q3Hy9_Gc2_-Au-52" value="&lt;font style=&quot;font-size: 11px;&quot;&gt;Se selecciona el boton &quot;Cancelar&quot;&lt;/font&gt;&lt;div style=&quot;font-size: 11px;&quot;&gt;&lt;font style=&quot;font-size: 11px;&quot;&gt;// Mostrar Mensaje de Cancelacion, Finalizar Sesion&lt;/font&gt;&lt;/div&gt;" style="text;html=1;align=left;verticalAlign=middle;resizable=0;points=[];autosize=1;strokeColor=none;fillColor=none;" vertex="1" parent="1">
          <mxGeometry x="710" y="770" width="280" height="40" as="geometry" />
        </mxCell>
        <mxCell id="yhOKyf5q3Hy9_Gc2_-Au-53" value="&lt;font style=&quot;font-size: 11px;&quot;&gt;Se selecciona el boton &quot;Confirmar&quot;&lt;/font&gt;&lt;div style=&quot;font-size: 11px;&quot;&gt;&lt;font style=&quot;font-size: 11px;&quot;&gt;//Imprimir Voto, Mostrar Mensaje Exito,&amp;nbsp;&lt;/font&gt;&lt;/div&gt;&lt;div style=&quot;font-size: 11px;&quot;&gt;&lt;font style=&quot;font-size: 11px;&quot;&gt;Enviar Mensaje a Autoridades,Finalizar Sesion&lt;/font&gt;&lt;/div&gt;" style="text;html=1;align=right;verticalAlign=middle;resizable=0;points=[];autosize=1;strokeColor=none;fillColor=none;" vertex="1" parent="1">
          <mxGeometry x="320" y="780" width="250" height="50" as="geometry" />
        </mxCell>
      </root>
    </mxGraphModel>
  </diagram>
</mxfile>
